<svg width="18" height="18" viewBox="0 0 18 18" fill="none" xmlns="http://www.w3.org/2000/svg">
<g clip-path="url(#clip0_292_4046)">
<path d="M7.515 17.91C3.24 17.145 0 13.455 0 9C0 4.05 4.05 0 9 0C13.95 0 18 4.05 18 9C18 13.455 14.76 17.145 10.485 17.91L9.99 17.505H8.01L7.515 17.91Z" fill="url(#paint0_linear_292_4046)"/>
<path d="M12.5096 11.5198L12.9146 8.99977H10.5296V7.24477C10.5296 6.52477 10.7996 5.98477 11.8796 5.98477H13.0496V3.68977C12.4196 3.59977 11.6996 3.50977 11.0696 3.50977C8.99957 3.50977 7.55957 4.76977 7.55957 7.01977V8.99977H5.30957V11.5198H7.55957V17.8648C8.05457 17.9548 8.54957 17.9998 9.04457 17.9998C9.53957 17.9998 10.0346 17.9548 10.5296 17.8648V11.5198H12.5096Z" fill="white"/>
</g>
<defs>
<linearGradient id="paint0_linear_292_4046" x1="9.00045" y1="17.374" x2="9.00045" y2="-0.0033155" gradientUnits="userSpaceOnUse">
<stop stop-color="#0062E0"/>
<stop offset="1" stop-color="#19AFFF"/>
</linearGradient>
<clipPath id="clip0_292_4046">
<rect width="18" height="18" fill="white"/>
</clipPath>
</defs>
</svg>
