<svg width="34" height="34" viewBox="0 0 34 34" fill="none" xmlns="http://www.w3.org/2000/svg">
<g id="vuesax/outline/user">
<g id="user">
<path id="Vector" d="M17 18.0624C12.5092 18.0624 8.85416 14.4074 8.85416 9.91658C8.85416 5.42575 12.5092 1.77075 17 1.77075C21.4908 1.77075 25.1458 5.42575 25.1458 9.91658C25.1458 14.4074 21.4908 18.0624 17 18.0624ZM17 3.89575C13.685 3.89575 10.9792 6.60159 10.9792 9.91658C10.9792 13.2316 13.685 15.9374 17 15.9374C20.315 15.9374 23.0208 13.2316 23.0208 9.91658C23.0208 6.60159 20.315 3.89575 17 3.89575Z" fill="#446DFF"/>
<path id="Vector_2" d="M29.1694 32.2292C28.5885 32.2292 28.1069 31.7475 28.1069 31.1667C28.1069 26.2792 23.1202 22.3125 17.0002 22.3125C10.8802 22.3125 5.89355 26.2792 5.89355 31.1667C5.89355 31.7475 5.41189 32.2292 4.83105 32.2292C4.25022 32.2292 3.76855 31.7475 3.76855 31.1667C3.76855 25.1175 9.70438 20.1875 17.0002 20.1875C24.2961 20.1875 30.2319 25.1175 30.2319 31.1667C30.2319 31.7475 29.7502 32.2292 29.1694 32.2292Z" fill="#446DFF"/>
</g>
</g>
</svg>
