<svg width="34" height="34" viewBox="0 0 34 34" fill="none" xmlns="http://www.w3.org/2000/svg">
<g id="icons/Peoples/id-card-h">
<path id="Vector" d="M29.75 5.66675H4.25004C3.46764 5.66675 2.83337 6.30101 2.83337 7.08341V26.9167C2.83337 27.6992 3.46764 28.3334 4.25004 28.3334H29.75C30.5324 28.3334 31.1667 27.6992 31.1667 26.9167V7.08341C31.1667 6.30101 30.5324 5.66675 29.75 5.66675Z" stroke="#446DFF" stroke-width="2" stroke-linejoin="round"/>
<path id="Vector_2" d="M12.0417 17.7084C13.6065 17.7084 14.875 16.4399 14.875 14.8751C14.875 13.3103 13.6065 12.0417 12.0417 12.0417C10.4769 12.0417 9.20837 13.3103 9.20837 14.8751C9.20837 16.4399 10.4769 17.7084 12.0417 17.7084Z" stroke="#446DFF" stroke-width="2" stroke-linejoin="round"/>
<path id="Vector_3" d="M16.2916 21.9583C16.2916 19.611 14.3888 17.7083 12.0416 17.7083C9.69442 17.7083 7.79163 19.611 7.79163 21.9583" stroke="#446DFF" stroke-width="2" stroke-linecap="round" stroke-linejoin="round"/>
<path id="Vector_4" d="M19.8334 14.1667H25.5" stroke="#446DFF" stroke-width="2" stroke-linecap="round" stroke-linejoin="round"/>
<path id="Vector_5" d="M21.25 19.8333H25.5" stroke="#446DFF" stroke-width="2" stroke-linecap="round" stroke-linejoin="round"/>
</g>
</svg>
