<svg width="131" height="132" viewBox="0 0 131 132" fill="none" xmlns="http://www.w3.org/2000/svg">
<mask id="path-1-inside-1_287_3905" fill="white">
<path d="M76 89.0355V86.0788C76 85.8652 76.2582 85.7582 76.4093 85.9093C76.466 85.966 76.5472 85.9906 76.6258 85.9748L77.9066 85.7187C78.5887 85.5823 79.1558 85.1106 79.4141 84.4647C79.7598 83.6005 79.4692 82.6255 78.7848 81.9947C78.3521 81.5959 78 81.2055 78 81C78 80.5 76 78 76 77.5C76 77.3504 76.1865 77.0563 76.4548 76.7118C77.3345 75.5826 80 74.5686 80 76C80 76.362 81.6382 77.5705 82.6907 78.2909C82.8952 78.4309 83.1191 78.5397 83.3543 78.6181L84.6241 79.0414C85.384 79.2947 86.2053 78.884 86.4586 78.1241C86.4862 78.0415 86.5062 77.9567 86.5185 77.8705L86.8891 75.2766C86.9596 74.7824 87.2374 74.3417 87.6528 74.0648C88.1767 73.7156 88.8476 73.6738 89.4108 73.9554L89.7084 74.1042C90.2183 74.3592 90.617 74.7924 90.8287 75.3218L91.247 76.3675C91.415 76.7874 91.5284 77.2272 91.5845 77.676L92 81V81.7786C92 82.9206 92.1592 84.0571 92.4729 85.1552L92.8688 86.5409C92.9557 86.8451 93.0894 87.134 93.2649 87.3973C93.7339 88.1008 94.4732 88.5789 95.3072 88.7179L96.0269 88.8378C96.6688 88.9448 97.3258 88.9186 97.9571 88.7607L99 88.5C99.6667 88.3333 101.1 87.7 101.5 86.5C102 85 102 85.5 102.341 85C102.682 84.5 102.5 82.5 102.5 81.5V78V74.5607C102.5 74.2017 102.643 73.8574 102.896 73.6036C103.479 73.0211 104.442 73.0896 104.936 73.7485L105.276 74.2019C105.424 74.3987 105.531 74.6229 105.59 74.8615L106.5 78.5L107 82.5V83.8675C107 85.5121 107.822 87.048 109.19 87.9602C109.725 88.3166 110.324 88.5648 110.954 88.6908L111.826 88.8653C112.274 88.9549 112.73 89 113.187 89H114.142C115.024 89 115.881 88.7141 116.586 88.1853C117.184 87.7371 117.647 87.1331 117.924 86.4395L118.222 85.6956C118.407 85.2332 118.541 84.7522 118.623 84.261L118.783 83.3009C118.927 82.4351 119 81.5589 119 80.6812V79V74V73.5837C119 72.3721 119.855 71.329 121.043 71.0914C121.345 71.031 121.656 71.0259 121.96 71.0766L123.394 71.3157C124.127 71.4379 124.874 71.4465 125.61 71.3415L126.117 71.269C127.339 71.0944 128.472 70.528 129.345 69.6549C129.779 69.2211 130.148 68.7235 130.373 68.1527C130.68 67.3708 131 66.3314 131 65.5V65.096C131 64.0415 130.799 62.997 130.407 62.0179L130.225 61.5618C130.076 61.1889 129.878 60.8372 129.637 60.5159C128.909 59.5453 127.825 58.9036 126.624 58.732L125.656 58.5937C125.22 58.5315 124.779 58.5221 124.341 58.5659L122.056 58.7944C120.854 58.9146 119.5 58.2082 119.5 57C119.5 56.9109 119.483 56.7871 119.456 56.643C119.244 55.5332 119 54.424 119 53.2941V53.0308C119 52.3462 118.916 51.6642 118.75 51C118.584 50.3358 118.5 49.6538 118.5 48.9692V47.8435C118.5 47.2819 118.46 46.721 118.381 46.165L118.215 45.0065C118.074 44.0148 117.712 43.0673 117.156 42.2338L116.922 41.8829C116.321 40.9822 115.462 40.2848 114.457 39.8827C113.825 39.6299 113.15 39.5 112.469 39.5H111.618C110.883 39.5 110.158 39.6712 109.5 40C108.842 40.3288 108.27 40.8062 107.829 41.3944L107.735 41.52C107.251 42.1651 106.918 42.9105 106.76 43.7013L106.5 45L106 48.5L105.596 50.9251C105.532 51.3077 105.5 51.695 105.5 52.0829V53.8586C105.5 54.5894 105.21 55.2903 104.693 55.8071L104.637 55.8626C104.546 55.954 104.446 56.0361 104.338 56.1078L104.319 56.1205C103.552 56.6319 102.531 56.5307 101.879 55.8788C101.631 55.6309 101.455 55.3204 101.37 54.9803L101.237 54.4488C101.081 53.8259 101.081 53.1741 101.237 52.5512L101.5 51.5L102.5 48C102.825 46.6998 102.732 45.3302 102.234 44.0859L102 43.5L101.901 43.1035C101.646 42.0858 100.96 41.23 100.022 40.7608C99.6761 40.5881 99.3608 40.3608 99.0876 40.0876L99.0545 40.0545C98.0901 39.0901 96.6413 38.5996 95.4259 39.2184C95.2429 39.3115 95.0933 39.4067 95 39.5C94.7673 39.7327 94.4105 40.2023 94.0871 40.6529C93.6894 41.2071 93.4154 41.8383 93.25 42.5C93.0846 43.1617 92.8066 43.7901 92.4282 44.3577L92.2722 44.5917C91.4427 45.836 91 47.298 91 48.7935V49.5L90.5 53.5C90.5 54.7079 89.7646 55.7942 88.643 56.2428L88.258 56.3968C88.0876 56.465 87.9057 56.5 87.7222 56.5C87.0169 56.5 86.415 55.9901 86.2991 55.2945L86.0278 53.6666C86.0093 53.5557 86 53.4435 86 53.3311V51.901C86 51.2118 85.3247 50.7251 84.6709 50.943C84.5578 50.9807 84.453 51.0378 84.3595 51.1117C83.4827 51.8047 81.8787 53 81.5 53C81.275 53 81.0394 53.211 80.8466 53.455C80.5883 53.782 80.2863 54.0855 79.8993 54.2403C78.9115 54.6354 77.802 54.0379 77.6279 52.9883C77.5533 52.5384 77.5 52.1599 77.5 52C77.5 51.723 77.6599 50.9503 77.8136 50.2799C77.9318 49.764 78.1636 49.2819 78.4812 48.8584L80.1094 46.6874C80.5931 46.0426 80.4357 45.1238 79.765 44.6767C79.5905 44.5604 79.3923 44.4846 79.1847 44.455L76.8196 44.1171C76.2876 44.0411 75.7946 43.7946 75.4146 43.4146L75.309 43.309C75.1058 43.1058 74.9527 42.8581 74.8618 42.5854C74.6401 41.9202 74.8132 41.1868 75.309 40.691L75.8424 40.1576C76.2712 39.7288 76.8169 39.4351 77.413 39.3235C78.2497 39.1669 79.217 39 79.5 39C82.1212 39 84.7241 38.3005 87 37C87.8333 36.5 89.6 35.4 90 35C90.3285 34.6715 90.2298 33.646 90.0918 32.9206C90.0382 32.6393 89.9354 32.3708 89.8073 32.1146C89.2949 31.0898 88.3603 30.3401 87.2487 30.0622L85.8446 29.7111C85.2836 29.5709 84.7076 29.5 84.1294 29.5H81L75.9319 29.9607C75.6455 29.9868 75.3568 29.9714 75.0747 29.9149L74.7686 29.8537C73.7087 29.6417 72.8978 28.7845 72.7449 27.7145C72.5971 26.6796 73.0961 25.6594 74.0038 25.1407L75.165 24.4771C75.7155 24.1626 76.326 23.9674 76.9569 23.9043L81 23.5L85.0218 23.1344C85.9898 23.0464 86.9169 22.7022 87.7078 22.1373L88.5196 21.5574C89.4487 20.8938 90 19.8224 90 18.6808C90 18.2311 89.9142 17.7855 89.7472 17.3679L89.5741 16.9353C89.1978 15.9945 88.5841 15.1673 87.7929 14.5343C86.9475 13.858 85.9314 13.4289 84.8571 13.2946L82.5 13H73.4189C72.8557 13 72.3409 12.6818 72.0891 12.1781C72.0299 12.0599 71.9869 11.9343 71.961 11.8048L71.5 9.5C71.3333 8.16667 71 5.4 71 5C71 4.7557 70.5026 3.87725 69.9636 3.00258C69.3524 2.01095 68.4299 1.25569 67.3593 0.79684C66.1531 0.279886 64.8107 0.172325 63.5375 0.490613L62.5855 0.728615C61.8703 0.907434 61.202 1.23842 60.6262 1.699C59.5835 2.53323 58.9073 3.74142 58.7417 5.06653L58.5 7V11C58.5 12.1046 57.6046 13 56.5 13L52.645 12.7035C50.889 12.5684 49.1228 12.6595 47.3899 12.9746L45.1744 13.3774C44.7271 13.4587 44.2936 13.6032 43.887 13.8065C43.6295 13.9352 43.3842 14.0869 43.1539 14.2596L42.4051 14.8212C41.8099 15.2676 41.3268 15.8464 40.994 16.5119L40.7815 16.9369C40.2859 17.9283 40.2518 19.0875 40.6884 20.1063C41.1941 21.2863 42.2659 22.1276 43.5323 22.3387L47.5 23L53.5286 23.9275C53.842 23.9757 54.1497 24.0561 54.4466 24.1675L56.5967 24.9738C57.412 25.2795 57.8968 26.1195 57.7536 26.9783C57.6073 27.8564 56.8475 28.5 55.9573 28.5H55.5H53H50.6127C49.8718 28.5 49.1319 28.4474 48.3985 28.3426L47.527 28.2181C46.515 28.0736 45.4868 28.0855 44.4785 28.2536C43.4983 28.4169 42.5277 28.6981 41.7189 29.2753C41.2016 29.6445 40.7093 30.0814 40.5 30.5C40.2082 31.0837 40.076 32.5901 40.0259 33.8152C39.994 34.5942 40.1815 35.363 40.5302 36.0604C40.84 36.6801 41.2748 37.229 41.807 37.6725L42.2051 38.0042C43.374 38.9783 44.8116 39.5738 46.3269 39.7115L49.5 40H54.0992C54.676 40 55.2291 40.2291 55.637 40.637C55.8757 40.8757 56.0571 41.1659 56.156 41.4887C56.4773 42.5377 56.842 44 56.5 44C56.1639 44 54.3921 43.7646 53.1425 43.5906C52.7239 43.5323 52.2975 43.6013 51.9195 43.7903L51.8341 43.8329C51.0465 44.2268 50.6198 45.0991 50.7925 45.9627C50.922 46.6098 51.3695 47.1478 51.9822 47.3929L52.25 47.5C53.0298 47.8119 53.5993 48.4966 53.764 49.3201L53.9227 50.1136C53.9741 50.3706 54 50.632 54 50.894V53.1145C54 53.6572 53.6934 54.1533 53.208 54.396C53.0702 54.4649 52.9458 54.5567 52.8311 54.6594C52.2652 55.1662 51.2204 55.8602 50.5 55.5C49.5 55 49.5 54.5 49 54C48.5 53.5 48 52 47.5 51.5C46.7862 50.7862 45.9315 52.0987 45.472 52.9974C45.3218 53.2912 45.1583 53.5 45 53.5C44.7791 53.5 44.6497 54.0084 44.5781 54.6039C44.4758 55.4551 44.0156 56.2422 43.2489 56.6256C42.7656 56.8672 42.2102 56.9334 41.6947 56.7715C41.0303 56.5627 40.2735 56.2735 40 56C39.3597 55.3597 39 54.4912 39 53.5857V52.5V49C39 48.5 39 47 38.5 46.5C38 46 38 44 37.5 43.5C37 43 37 43 36 42.5C35 42 35 41.5 34 41C33 40.5 32.5 40.5 32 40.5C31.4785 40.5 31.3787 41.2427 31.1455 41.7091L30.5 43C30 44 29.5 44.5 29.5 45V47V49.5C29.5 50 30.5 53 30.5 53.5V56.5C30.5 57 29 58 28 58C27 58 27 58 26.5 57.5C26 57 25.5 56 25 55.5C24.5 55 23.5 53.5 23.5 53C23.5 52.5 23 50 23 49.5C23 49 23.5 45.5 23.5 45C23.5 44.9237 23.4879 44.822 23.4671 44.7038C23.2658 43.5588 22.572 42.572 21.75 41.75C20.928 40.928 19.9332 40.2616 18.7858 40.0745C18.5079 40.0291 18.2365 40 18 40C17 40 15.5 41 15 41.5C14.5 42 14 43 13.5 43.5C13.2885 43.7115 13.1609 44.2119 13.0876 44.7351C12.9703 45.5717 12.94 46.4198 12.8206 47.2561C12.6077 48.7461 12.5878 50.2565 12.738 51.7541C12.8739 53.108 13 54.5079 13 55C13 55.3754 12.8532 55.9856 12.663 56.6137C12.3128 57.7697 11.2079 58.5 10 58.5C9 58.5 5 59 4.5 59C4 59 2.5 60 2 60.5C1.85149 60.6485 1.65244 60.9395 1.44378 61.2807C0.765413 62.3903 0.391299 63.6522 0.177503 64.935L0.0751407 65.5492C0.0251324 65.8492 0 66.1529 0 66.4571C0 67.7754 0.475041 69.0542 1.33298 70.0551C2.38831 71.2864 3.9482 72 5.56981 72C5.85452 72 6.14132 72.0217 6.42272 72.065L11.5116 72.8479C12.0803 72.9354 12.5 73.4247 12.5 74V76V79V81.038C12.5 81.6783 12.5529 82.3174 12.6582 82.949L12.7307 83.3843C12.9088 84.4529 13.2752 85.4815 13.8127 86.4222C14.5912 87.7845 15.7066 88.924 17.0521 89.7313L17.5 90C18.759 90.6295 20.241 90.6295 21.5 90L22.6303 89.4348C23.2002 89.1499 23.6859 88.7211 24.0393 88.191C24.3426 87.7361 24.5409 87.2196 24.6137 86.6778C24.7848 85.405 25 83.6429 25 83V78.5C25 78.1675 25.4606 76.4303 25.8075 75.1833C25.9324 74.7344 26.1729 74.3271 26.5023 73.9977L26.6873 73.8127C27.1973 73.3027 27.9223 73.0704 28.6337 73.189C29.7107 73.3684 30.5 74.3004 30.5 75.3922V76C30.5 76.1515 30.4044 76.4989 30.2675 76.9175C29.8091 78.3189 29.3946 79.7377 29.1861 81.1973L29.1145 81.6983C29.0383 82.2321 29 82.7706 29 83.3099V84.0123C29 85.3195 29.3043 86.6087 29.8889 87.7779L30.1849 88.3697C30.3936 88.7872 30.6682 89.1683 30.9983 89.4983C31.9458 90.4458 33.2777 90.9028 34.6074 90.7366L34.9179 90.6978C35.9433 90.5696 36.8967 90.1033 37.6274 89.3726C38.1992 88.8008 38.6119 88.0896 38.8247 87.3094L39.7596 83.8815C39.9194 83.2954 40.0191 82.6944 40.057 82.088L40.3848 76.8426C40.4523 75.7638 41.2549 74.8742 42.321 74.6965C43.0609 74.5732 43.8148 74.8148 44.3451 75.3452L45.1621 76.1621C46.0188 77.0188 47.1806 77.5 48.392 77.5H49H50.5C52.433 77.5 54 79.067 54 81V84.2016C54 84.9187 54.5813 85.5 55.2984 85.5C56.3872 85.5 56.9925 86.7594 56.3123 87.6096L54.4972 89.8785C54.1727 90.2842 53.7378 90.5874 53.245 90.7517L48.1441 92.452C47.0566 92.8145 46.0419 93.3665 45.1468 94.0826L42.3872 96.2903C41.8264 96.7389 41.5 97.418 41.5 98.1361C41.5 99.4417 42.5583 100.5 43.8639 100.5H45.6247C46.2018 100.5 46.7725 100.621 47.2999 100.855L49.5698 101.864C50.4938 102.275 51.5327 102.348 52.5049 102.07L55.6108 101.183C56.8081 100.841 58 101.74 58 102.985C58 103.869 57.3826 104.632 56.5184 104.817L51.811 105.826C51.2719 105.942 50.722 106 50.1705 106H46.2426C44.5161 106 42.8903 106.813 41.8544 108.194C40.2166 110.378 40.4337 113.434 42.364 115.364L42.4359 115.436C43.133 116.133 44.0015 116.634 44.954 116.888L50.0484 118.246C50.6801 118.415 51.3311 118.5 51.9848 118.5H53.4658C56.7984 118.5 59.5 121.202 59.5 124.534C59.5 126.68 60.6399 128.665 62.4937 129.746L62.6387 129.831C64.4308 130.876 66.6217 130.977 68.5018 130.099L69.6506 129.563C71.6939 128.61 73 126.559 73 124.304V121.5C73 119.843 74.3431 118.5 76 118.5H79.9811C81.3195 118.5 82.6504 118.3 83.9296 117.906L86.8306 117.014C87.9103 116.681 88.8422 115.987 89.4688 115.047C90.6736 113.24 90.5462 110.855 89.1558 109.187L88.4274 108.313C87.2061 106.847 85.397 106 83.4893 106H80.943C80.3228 106 79.7112 105.856 79.1566 105.578L75.6276 103.814C74.4568 103.228 74.3552 101.597 75.4444 100.87C75.8016 100.632 76.2355 100.538 76.6594 100.606L84.8859 101.922C87.0522 102.268 89.2021 101.213 90.2526 99.2868C91.0374 97.8481 91.0952 96.1229 90.4084 94.6349L90.1799 94.1398C89.1558 91.9209 86.935 90.5 84.4912 90.5H77.4645C76.6557 90.5 76 89.8443 76 89.0355Z"/>
</mask>
<path d="M76 89.0355V86.0788C76 85.8652 76.2582 85.7582 76.4093 85.9093C76.466 85.966 76.5472 85.9906 76.6258 85.9748L77.9066 85.7187C78.5887 85.5823 79.1558 85.1106 79.4141 84.4647C79.7598 83.6005 79.4692 82.6255 78.7848 81.9947C78.3521 81.5959 78 81.2055 78 81C78 80.5 76 78 76 77.5C76 77.3504 76.1865 77.0563 76.4548 76.7118C77.3345 75.5826 80 74.5686 80 76C80 76.362 81.6382 77.5705 82.6907 78.2909C82.8952 78.4309 83.1191 78.5397 83.3543 78.6181L84.6241 79.0414C85.384 79.2947 86.2053 78.884 86.4586 78.1241C86.4862 78.0415 86.5062 77.9567 86.5185 77.8705L86.8891 75.2766C86.9596 74.7824 87.2374 74.3417 87.6528 74.0648C88.1767 73.7156 88.8476 73.6738 89.4108 73.9554L89.7084 74.1042C90.2183 74.3592 90.617 74.7924 90.8287 75.3218L91.247 76.3675C91.415 76.7874 91.5284 77.2272 91.5845 77.676L92 81V81.7786C92 82.9206 92.1592 84.0571 92.4729 85.1552L92.8688 86.5409C92.9557 86.8451 93.0894 87.134 93.2649 87.3973C93.7339 88.1008 94.4732 88.5789 95.3072 88.7179L96.0269 88.8378C96.6688 88.9448 97.3258 88.9186 97.9571 88.7607L99 88.5C99.6667 88.3333 101.1 87.7 101.5 86.5C102 85 102 85.5 102.341 85C102.682 84.5 102.5 82.5 102.5 81.5V78V74.5607C102.5 74.2017 102.643 73.8574 102.896 73.6036C103.479 73.0211 104.442 73.0896 104.936 73.7485L105.276 74.2019C105.424 74.3987 105.531 74.6229 105.59 74.8615L106.5 78.5L107 82.5V83.8675C107 85.5121 107.822 87.048 109.19 87.9602C109.725 88.3166 110.324 88.5648 110.954 88.6908L111.826 88.8653C112.274 88.9549 112.73 89 113.187 89H114.142C115.024 89 115.881 88.7141 116.586 88.1853C117.184 87.7371 117.647 87.1331 117.924 86.4395L118.222 85.6956C118.407 85.2332 118.541 84.7522 118.623 84.261L118.783 83.3009C118.927 82.4351 119 81.5589 119 80.6812V79V74V73.5837C119 72.3721 119.855 71.329 121.043 71.0914C121.345 71.031 121.656 71.0259 121.96 71.0766L123.394 71.3157C124.127 71.4379 124.874 71.4465 125.61 71.3415L126.117 71.269C127.339 71.0944 128.472 70.528 129.345 69.6549C129.779 69.2211 130.148 68.7235 130.373 68.1527C130.68 67.3708 131 66.3314 131 65.5V65.096C131 64.0415 130.799 62.997 130.407 62.0179L130.225 61.5618C130.076 61.1889 129.878 60.8372 129.637 60.5159C128.909 59.5453 127.825 58.9036 126.624 58.732L125.656 58.5937C125.22 58.5315 124.779 58.5221 124.341 58.5659L122.056 58.7944C120.854 58.9146 119.5 58.2082 119.5 57C119.5 56.9109 119.483 56.7871 119.456 56.643C119.244 55.5332 119 54.424 119 53.2941V53.0308C119 52.3462 118.916 51.6642 118.75 51C118.584 50.3358 118.5 49.6538 118.5 48.9692V47.8435C118.5 47.2819 118.46 46.721 118.381 46.165L118.215 45.0065C118.074 44.0148 117.712 43.0673 117.156 42.2338L116.922 41.8829C116.321 40.9822 115.462 40.2848 114.457 39.8827C113.825 39.6299 113.15 39.5 112.469 39.5H111.618C110.883 39.5 110.158 39.6712 109.5 40C108.842 40.3288 108.27 40.8062 107.829 41.3944L107.735 41.52C107.251 42.1651 106.918 42.9105 106.76 43.7013L106.5 45L106 48.5L105.596 50.9251C105.532 51.3077 105.5 51.695 105.5 52.0829V53.8586C105.5 54.5894 105.21 55.2903 104.693 55.8071L104.637 55.8626C104.546 55.954 104.446 56.0361 104.338 56.1078L104.319 56.1205C103.552 56.6319 102.531 56.5307 101.879 55.8788C101.631 55.6309 101.455 55.3204 101.37 54.9803L101.237 54.4488C101.081 53.8259 101.081 53.1741 101.237 52.5512L101.5 51.5L102.5 48C102.825 46.6998 102.732 45.3302 102.234 44.0859L102 43.5L101.901 43.1035C101.646 42.0858 100.96 41.23 100.022 40.7608C99.6761 40.5881 99.3608 40.3608 99.0876 40.0876L99.0545 40.0545C98.0901 39.0901 96.6413 38.5996 95.4259 39.2184C95.2429 39.3115 95.0933 39.4067 95 39.5C94.7673 39.7327 94.4105 40.2023 94.0871 40.6529C93.6894 41.2071 93.4154 41.8383 93.25 42.5C93.0846 43.1617 92.8066 43.7901 92.4282 44.3577L92.2722 44.5917C91.4427 45.836 91 47.298 91 48.7935V49.5L90.5 53.5C90.5 54.7079 89.7646 55.7942 88.643 56.2428L88.258 56.3968C88.0876 56.465 87.9057 56.5 87.7222 56.5C87.0169 56.5 86.415 55.9901 86.2991 55.2945L86.0278 53.6666C86.0093 53.5557 86 53.4435 86 53.3311V51.901C86 51.2118 85.3247 50.7251 84.6709 50.943C84.5578 50.9807 84.453 51.0378 84.3595 51.1117C83.4827 51.8047 81.8787 53 81.5 53C81.275 53 81.0394 53.211 80.8466 53.455C80.5883 53.782 80.2863 54.0855 79.8993 54.2403C78.9115 54.6354 77.802 54.0379 77.6279 52.9883C77.5533 52.5384 77.5 52.1599 77.5 52C77.5 51.723 77.6599 50.9503 77.8136 50.2799C77.9318 49.764 78.1636 49.2819 78.4812 48.8584L80.1094 46.6874C80.5931 46.0426 80.4357 45.1238 79.765 44.6767C79.5905 44.5604 79.3923 44.4846 79.1847 44.455L76.8196 44.1171C76.2876 44.0411 75.7946 43.7946 75.4146 43.4146L75.309 43.309C75.1058 43.1058 74.9527 42.8581 74.8618 42.5854C74.6401 41.9202 74.8132 41.1868 75.309 40.691L75.8424 40.1576C76.2712 39.7288 76.8169 39.4351 77.413 39.3235C78.2497 39.1669 79.217 39 79.5 39C82.1212 39 84.7241 38.3005 87 37C87.8333 36.5 89.6 35.4 90 35C90.3285 34.6715 90.2298 33.646 90.0918 32.9206C90.0382 32.6393 89.9354 32.3708 89.8073 32.1146C89.2949 31.0898 88.3603 30.3401 87.2487 30.0622L85.8446 29.7111C85.2836 29.5709 84.7076 29.5 84.1294 29.5H81L75.9319 29.9607C75.6455 29.9868 75.3568 29.9714 75.0747 29.9149L74.7686 29.8537C73.7087 29.6417 72.8978 28.7845 72.7449 27.7145C72.5971 26.6796 73.0961 25.6594 74.0038 25.1407L75.165 24.4771C75.7155 24.1626 76.326 23.9674 76.9569 23.9043L81 23.5L85.0218 23.1344C85.9898 23.0464 86.9169 22.7022 87.7078 22.1373L88.5196 21.5574C89.4487 20.8938 90 19.8224 90 18.6808C90 18.2311 89.9142 17.7855 89.7472 17.3679L89.5741 16.9353C89.1978 15.9945 88.5841 15.1673 87.7929 14.5343C86.9475 13.858 85.9314 13.4289 84.8571 13.2946L82.5 13H73.4189C72.8557 13 72.3409 12.6818 72.0891 12.1781C72.0299 12.0599 71.9869 11.9343 71.961 11.8048L71.5 9.5C71.3333 8.16667 71 5.4 71 5C71 4.7557 70.5026 3.87725 69.9636 3.00258C69.3524 2.01095 68.4299 1.25569 67.3593 0.79684C66.1531 0.279886 64.8107 0.172325 63.5375 0.490613L62.5855 0.728615C61.8703 0.907434 61.202 1.23842 60.6262 1.699C59.5835 2.53323 58.9073 3.74142 58.7417 5.06653L58.5 7V11C58.5 12.1046 57.6046 13 56.5 13L52.645 12.7035C50.889 12.5684 49.1228 12.6595 47.3899 12.9746L45.1744 13.3774C44.7271 13.4587 44.2936 13.6032 43.887 13.8065C43.6295 13.9352 43.3842 14.0869 43.1539 14.2596L42.4051 14.8212C41.8099 15.2676 41.3268 15.8464 40.994 16.5119L40.7815 16.9369C40.2859 17.9283 40.2518 19.0875 40.6884 20.1063C41.1941 21.2863 42.2659 22.1276 43.5323 22.3387L47.5 23L53.5286 23.9275C53.842 23.9757 54.1497 24.0561 54.4466 24.1675L56.5967 24.9738C57.412 25.2795 57.8968 26.1195 57.7536 26.9783C57.6073 27.8564 56.8475 28.5 55.9573 28.5H55.5H53H50.6127C49.8718 28.5 49.1319 28.4474 48.3985 28.3426L47.527 28.2181C46.515 28.0736 45.4868 28.0855 44.4785 28.2536C43.4983 28.4169 42.5277 28.6981 41.7189 29.2753C41.2016 29.6445 40.7093 30.0814 40.5 30.5C40.2082 31.0837 40.076 32.5901 40.0259 33.8152C39.994 34.5942 40.1815 35.363 40.5302 36.0604C40.84 36.6801 41.2748 37.229 41.807 37.6725L42.2051 38.0042C43.374 38.9783 44.8116 39.5738 46.3269 39.7115L49.5 40H54.0992C54.676 40 55.2291 40.2291 55.637 40.637C55.8757 40.8757 56.0571 41.1659 56.156 41.4887C56.4773 42.5377 56.842 44 56.5 44C56.1639 44 54.3921 43.7646 53.1425 43.5906C52.7239 43.5323 52.2975 43.6013 51.9195 43.7903L51.8341 43.8329C51.0465 44.2268 50.6198 45.0991 50.7925 45.9627C50.922 46.6098 51.3695 47.1478 51.9822 47.3929L52.25 47.5C53.0298 47.8119 53.5993 48.4966 53.764 49.3201L53.9227 50.1136C53.9741 50.3706 54 50.632 54 50.894V53.1145C54 53.6572 53.6934 54.1533 53.208 54.396C53.0702 54.4649 52.9458 54.5567 52.8311 54.6594C52.2652 55.1662 51.2204 55.8602 50.5 55.5C49.5 55 49.5 54.5 49 54C48.5 53.5 48 52 47.5 51.5C46.7862 50.7862 45.9315 52.0987 45.472 52.9974C45.3218 53.2912 45.1583 53.5 45 53.5C44.7791 53.5 44.6497 54.0084 44.5781 54.6039C44.4758 55.4551 44.0156 56.2422 43.2489 56.6256C42.7656 56.8672 42.2102 56.9334 41.6947 56.7715C41.0303 56.5627 40.2735 56.2735 40 56C39.3597 55.3597 39 54.4912 39 53.5857V52.5V49C39 48.5 39 47 38.5 46.5C38 46 38 44 37.5 43.5C37 43 37 43 36 42.5C35 42 35 41.5 34 41C33 40.5 32.5 40.5 32 40.5C31.4785 40.5 31.3787 41.2427 31.1455 41.7091L30.5 43C30 44 29.5 44.5 29.5 45V47V49.5C29.5 50 30.5 53 30.5 53.5V56.5C30.5 57 29 58 28 58C27 58 27 58 26.5 57.5C26 57 25.5 56 25 55.5C24.5 55 23.5 53.5 23.5 53C23.5 52.5 23 50 23 49.5C23 49 23.5 45.5 23.5 45C23.5 44.9237 23.4879 44.822 23.4671 44.7038C23.2658 43.5588 22.572 42.572 21.75 41.75C20.928 40.928 19.9332 40.2616 18.7858 40.0745C18.5079 40.0291 18.2365 40 18 40C17 40 15.5 41 15 41.5C14.5 42 14 43 13.5 43.5C13.2885 43.7115 13.1609 44.2119 13.0876 44.7351C12.9703 45.5717 12.94 46.4198 12.8206 47.2561C12.6077 48.7461 12.5878 50.2565 12.738 51.7541C12.8739 53.108 13 54.5079 13 55C13 55.3754 12.8532 55.9856 12.663 56.6137C12.3128 57.7697 11.2079 58.5 10 58.5C9 58.5 5 59 4.5 59C4 59 2.5 60 2 60.5C1.85149 60.6485 1.65244 60.9395 1.44378 61.2807C0.765413 62.3903 0.391299 63.6522 0.177503 64.935L0.0751407 65.5492C0.0251324 65.8492 0 66.1529 0 66.4571C0 67.7754 0.475041 69.0542 1.33298 70.0551C2.38831 71.2864 3.9482 72 5.56981 72C5.85452 72 6.14132 72.0217 6.42272 72.065L11.5116 72.8479C12.0803 72.9354 12.5 73.4247 12.5 74V76V79V81.038C12.5 81.6783 12.5529 82.3174 12.6582 82.949L12.7307 83.3843C12.9088 84.4529 13.2752 85.4815 13.8127 86.4222C14.5912 87.7845 15.7066 88.924 17.0521 89.7313L17.5 90C18.759 90.6295 20.241 90.6295 21.5 90L22.6303 89.4348C23.2002 89.1499 23.6859 88.7211 24.0393 88.191C24.3426 87.7361 24.5409 87.2196 24.6137 86.6778C24.7848 85.405 25 83.6429 25 83V78.5C25 78.1675 25.4606 76.4303 25.8075 75.1833C25.9324 74.7344 26.1729 74.3271 26.5023 73.9977L26.6873 73.8127C27.1973 73.3027 27.9223 73.0704 28.6337 73.189C29.7107 73.3684 30.5 74.3004 30.5 75.3922V76C30.5 76.1515 30.4044 76.4989 30.2675 76.9175C29.8091 78.3189 29.3946 79.7377 29.1861 81.1973L29.1145 81.6983C29.0383 82.2321 29 82.7706 29 83.3099V84.0123C29 85.3195 29.3043 86.6087 29.8889 87.7779L30.1849 88.3697C30.3936 88.7872 30.6682 89.1683 30.9983 89.4983C31.9458 90.4458 33.2777 90.9028 34.6074 90.7366L34.9179 90.6978C35.9433 90.5696 36.8967 90.1033 37.6274 89.3726C38.1992 88.8008 38.6119 88.0896 38.8247 87.3094L39.7596 83.8815C39.9194 83.2954 40.0191 82.6944 40.057 82.088L40.3848 76.8426C40.4523 75.7638 41.2549 74.8742 42.321 74.6965C43.0609 74.5732 43.8148 74.8148 44.3451 75.3452L45.1621 76.1621C46.0188 77.0188 47.1806 77.5 48.392 77.5H49H50.5C52.433 77.5 54 79.067 54 81V84.2016C54 84.9187 54.5813 85.5 55.2984 85.5C56.3872 85.5 56.9925 86.7594 56.3123 87.6096L54.4972 89.8785C54.1727 90.2842 53.7378 90.5874 53.245 90.7517L48.1441 92.452C47.0566 92.8145 46.0419 93.3665 45.1468 94.0826L42.3872 96.2903C41.8264 96.7389 41.5 97.418 41.5 98.1361C41.5 99.4417 42.5583 100.5 43.8639 100.5H45.6247C46.2018 100.5 46.7725 100.621 47.2999 100.855L49.5698 101.864C50.4938 102.275 51.5327 102.348 52.5049 102.07L55.6108 101.183C56.8081 100.841 58 101.74 58 102.985C58 103.869 57.3826 104.632 56.5184 104.817L51.811 105.826C51.2719 105.942 50.722 106 50.1705 106H46.2426C44.5161 106 42.8903 106.813 41.8544 108.194C40.2166 110.378 40.4337 113.434 42.364 115.364L42.4359 115.436C43.133 116.133 44.0015 116.634 44.954 116.888L50.0484 118.246C50.6801 118.415 51.3311 118.5 51.9848 118.5H53.4658C56.7984 118.5 59.5 121.202 59.5 124.534C59.5 126.68 60.6399 128.665 62.4937 129.746L62.6387 129.831C64.4308 130.876 66.6217 130.977 68.5018 130.099L69.6506 129.563C71.6939 128.61 73 126.559 73 124.304V121.5C73 119.843 74.3431 118.5 76 118.5H79.9811C81.3195 118.5 82.6504 118.3 83.9296 117.906L86.8306 117.014C87.9103 116.681 88.8422 115.987 89.4688 115.047C90.6736 113.24 90.5462 110.855 89.1558 109.187L88.4274 108.313C87.2061 106.847 85.397 106 83.4893 106H80.943C80.3228 106 79.7112 105.856 79.1566 105.578L75.6276 103.814C74.4568 103.228 74.3552 101.597 75.4444 100.87C75.8016 100.632 76.2355 100.538 76.6594 100.606L84.8859 101.922C87.0522 102.268 89.2021 101.213 90.2526 99.2868C91.0374 97.8481 91.0952 96.1229 90.4084 94.6349L90.1799 94.1398C89.1558 91.9209 86.935 90.5 84.4912 90.5H77.4645C76.6557 90.5 76 89.8443 76 89.0355Z" stroke="#FC0200" stroke-width="36" mask="url(#path-1-inside-1_287_3905)"/>
<path d="M98.251 65.5L99.8887 65.7334L100.01 66.0967L96.7842 66.5H95.0674L93.5039 65.9785L93.7812 65.8125L95.3447 65.5H98.251Z" stroke="black" stroke-width="7"/>
<path d="M32.749 65.5L31.1113 65.7334L30.9902 66.0967L34.2158 66.5H35.9326L37.4961 65.9785L37.2188 65.8125L35.6553 65.5H32.749Z" stroke="black" stroke-width="7"/>
<path d="M66.5 31.749L66.2666 30.1113L65.9033 29.9902L65.5 33.2158V34.9326L66.0215 36.4961L66.1875 36.2188L66.5 34.6553V31.749Z" stroke="black" stroke-width="7"/>
<path d="M65.5 99.251L65.7334 100.889L66.0967 101.01L66.5 97.7842V96.0674L65.9785 94.5039L65.8125 94.7812L65.5 96.3447V99.251Z" stroke="black" stroke-width="7"/>
<circle cx="65" cy="66" r="11.5" fill="#FC0200" stroke="black" stroke-width="3"/>
<circle cx="65" cy="66" r="2" fill="black"/>
</svg>
