<svg width="34" height="34" viewBox="0 0 34 34" fill="none" xmlns="http://www.w3.org/2000/svg">
<g id="vuesax/outline/user-remove">
<g id="user-remove">
<path id="Vector" d="M17 18.0624C12.5092 18.0624 8.85416 14.4074 8.85416 9.91658C8.85416 5.42575 12.5092 1.77075 17 1.77075C21.4908 1.77075 25.1458 5.42575 25.1458 9.91658C25.1458 14.4074 21.4908 18.0624 17 18.0624ZM17 3.89575C13.685 3.89575 10.9792 6.60159 10.9792 9.91658C10.9792 13.2316 13.685 15.9374 17 15.9374C20.315 15.9374 23.0208 13.2316 23.0208 9.91658C23.0208 6.60159 20.315 3.89575 17 3.89575Z" fill="#446DFF"/>
<path id="Vector_2" d="M4.83105 32.2292C4.25022 32.2292 3.76855 31.7475 3.76855 31.1667C3.76855 25.1175 9.70438 20.1875 17.0002 20.1875C18.431 20.1875 19.8335 20.3717 21.1935 20.7542C21.7602 20.91 22.0861 21.4908 21.9302 22.0575C21.7744 22.6242 21.1935 22.95 20.6269 22.7942C19.4652 22.4684 18.2469 22.3125 17.0002 22.3125C10.8802 22.3125 5.89355 26.2792 5.89355 31.1667C5.89355 31.7475 5.41189 32.2292 4.83105 32.2292Z" fill="#446DFF"/>
<path id="Vector_3" d="M25.5 32.2291C23.8283 32.2291 22.2417 31.6058 21.0092 30.4866C20.5133 30.0616 20.0742 29.5374 19.7342 28.9566C19.1108 27.9366 18.7708 26.7324 18.7708 25.4999C18.7708 23.7291 19.4508 22.0716 20.6692 20.8108C21.9442 19.4933 23.6583 18.7708 25.5 18.7708C27.4267 18.7708 29.2542 19.5924 30.5008 21.0091C31.6058 22.2416 32.2292 23.8283 32.2292 25.4999C32.2292 26.0383 32.1583 26.5766 32.0167 27.0866C31.875 27.7241 31.6058 28.3899 31.2375 28.9708C30.0617 30.9824 27.8517 32.2291 25.5 32.2291ZM25.5 20.8958C24.2392 20.8958 23.0775 21.3916 22.1992 22.2841C21.3634 23.1482 20.8958 24.2816 20.8958 25.4999C20.8958 26.3358 21.1225 27.1574 21.5617 27.8657C21.7883 28.2624 22.0858 28.6165 22.4258 28.914C23.2758 29.6932 24.3667 30.1183 25.5 30.1183C27.1008 30.1183 28.6167 29.2683 29.4383 27.8941C29.6792 27.4974 29.8633 27.0441 29.9625 26.605C30.0617 26.2366 30.1042 25.8824 30.1042 25.5141C30.1042 24.3808 29.6792 23.29 28.9142 22.44C28.0642 21.4483 26.8175 20.8958 25.5 20.8958Z" fill="#446DFF"/>
<path id="Vector_4" d="M23.9698 28.0499C23.7006 28.0499 23.4315 27.9507 23.219 27.7382C22.8081 27.3274 22.8081 26.6474 23.219 26.2366L26.2081 23.2473C26.619 22.8365 27.299 22.8365 27.7098 23.2473C28.1206 23.6582 28.1206 24.3382 27.7098 24.749L24.7206 27.7382C24.5081 27.9507 24.239 28.0499 23.9698 28.0499Z" fill="#446DFF"/>
<path id="Vector_5" d="M27.0018 28.0782C26.7327 28.0782 26.4635 27.979 26.251 27.7665L23.2619 24.7773C22.851 24.3665 22.851 23.6865 23.2619 23.2757C23.6727 22.8648 24.3527 22.8648 24.7635 23.2757L27.7527 26.2648C28.1635 26.6756 28.1635 27.3556 27.7527 27.7665C27.5402 27.979 27.271 28.0782 27.0018 28.0782Z" fill="#446DFF"/>
</g>
</g>
</svg>
