<svg width="34" height="34" viewBox="0 0 34 34" fill="none" xmlns="http://www.w3.org/2000/svg">
<g id="Group">
<path id="Vector" d="M8.16425 24.0833H28.3333V7.08333H5.66667V26.0454L8.16425 24.0833ZM9.14459 26.9167L2.83334 31.875V5.66667C2.83334 5.29094 2.98259 4.93061 3.24827 4.66493C3.51394 4.39926 3.87428 4.25 4.25 4.25H29.75C30.1257 4.25 30.4861 4.39926 30.7517 4.66493C31.0174 4.93061 31.1667 5.29094 31.1667 5.66667V25.5C31.1667 25.8757 31.0174 26.2361 30.7517 26.5017C30.4861 26.7674 30.1257 26.9167 29.75 26.9167H9.14459ZM15.5833 19.8333H18.4167V22.6667H15.5833V19.8333ZM12.1366 12.4851C12.3206 11.564 12.7625 10.714 13.4107 10.0342C14.059 9.3544 14.8869 8.87264 15.7983 8.64501C16.7096 8.41737 17.6668 8.45321 18.5586 8.74836C19.4504 9.04351 20.24 9.58584 20.8356 10.3122C21.4311 11.0386 21.8082 11.9192 21.9229 12.8515C22.0375 13.7838 21.8851 14.7295 21.4832 15.5786C21.0814 16.4276 20.4467 17.1451 19.653 17.6476C18.8594 18.15 17.9393 18.4167 17 18.4167H15.5833V15.5833H17C17.4024 15.5833 17.7966 15.469 18.1366 15.2537C18.4766 15.0384 18.7485 14.731 18.9207 14.3672C19.0928 14.0035 19.1581 13.5983 19.109 13.1989C19.0598 12.7994 18.8983 12.4222 18.6431 12.111C18.3879 11.7998 18.0496 11.5674 17.6676 11.441C17.2855 11.3145 16.8754 11.2991 16.4849 11.3967C16.0945 11.4942 15.7398 11.7006 15.462 11.9918C15.1843 12.2831 14.995 12.6472 14.9161 13.0418L12.1366 12.4851Z" fill="#446DFF"/>
</g>
</svg>
