<svg width="24" height="24" viewBox="0 0 24 24" fill="none" xmlns="http://www.w3.org/2000/svg">
<g id="7123025_logo_google_g_icon 1">
<g id="Group">
<path id="Vector" d="M19.1999 12.176C19.1999 11.68 19.1519 11.168 19.0719 10.688H12.1439V13.52H16.1119C15.9519 14.432 15.4239 15.232 14.6399 15.744L17.0079 17.584C18.3999 16.288 19.1999 14.4 19.1999 12.176Z" fill="#4280EF"/>
<path id="Vector_2" d="M12.144 19.3438C14.128 19.3438 15.792 18.6878 17.008 17.5678L14.64 15.7438C13.984 16.1918 13.136 16.4478 12.144 16.4478C10.224 16.4478 8.60798 15.1518 8.01598 13.4238L5.58398 15.2958C6.83198 17.7758 9.35998 19.3438 12.144 19.3438Z" fill="#34A353"/>
<path id="Vector_3" d="M8.01595 13.4081C7.71195 12.4961 7.71195 11.5041 8.01595 10.5921L5.58396 8.7041C4.54396 10.7841 4.54396 13.2321 5.58396 15.2961L8.01595 13.4081Z" fill="#F6B704"/>
<path id="Vector_4" d="M12.144 7.56804C13.184 7.55204 14.208 7.95204 14.96 8.67204L17.056 6.56004C15.728 5.31204 13.968 4.64004 12.144 4.65604C9.35998 4.65604 6.83198 6.22404 5.58398 8.70404L8.01598 10.592C8.60798 8.84804 10.224 7.56804 12.144 7.56804Z" fill="#E54335"/>
</g>
</g>
</svg>
