<svg width="878" height="879" viewBox="0 0 878 879" fill="none" xmlns="http://www.w3.org/2000/svg">
<g opacity="0.24" filter="url(#filter0_f_18_3)">
<circle cx="438.988" cy="439.853" r="348.988" fill="#081939" style="mix-blend-mode:multiply"/>
</g>
<g filter="url(#filter1_d_18_3)">
<path d="M737.244 383.587C737.244 548.491 603.562 682.173 438.657 682.173C273.752 682.173 140.071 548.491 140.071 383.587C140.071 218.682 273.752 85 438.657 85C603.562 85 737.244 218.682 737.244 383.587Z" fill="#081939"/>
<path d="M737.244 383.587C737.244 548.491 603.562 682.173 438.657 682.173C273.752 682.173 140.071 548.491 140.071 383.587C140.071 218.682 273.752 85 438.657 85C603.562 85 737.244 218.682 737.244 383.587Z" fill="url(#paint0_radial_18_3)" fill-opacity="0.9"/>
<path d="M737.244 383.587C737.244 548.491 603.562 682.173 438.657 682.173C273.752 682.173 140.071 548.491 140.071 383.587C140.071 218.682 273.752 85 438.657 85C603.562 85 737.244 218.682 737.244 383.587Z" fill="url(#paint1_radial_18_3)" fill-opacity="0.85"/>
<path d="M737.244 383.587C737.244 548.491 603.562 682.173 438.657 682.173C273.752 682.173 140.071 548.491 140.071 383.587C140.071 218.682 273.752 85 438.657 85C603.562 85 737.244 218.682 737.244 383.587Z" fill="url(#paint2_radial_18_3)" fill-opacity="0.8"/>
<path d="M737.244 383.587C737.244 548.491 603.562 682.173 438.657 682.173C273.752 682.173 140.071 548.491 140.071 383.587C140.071 218.682 273.752 85 438.657 85C603.562 85 737.244 218.682 737.244 383.587Z" fill="url(#paint3_radial_18_3)" fill-opacity="0.88"/>
</g>
<path d="M331.638 219.554C308.674 147.117 414.684 145.372 451.779 230.158C470.535 273.029 466.937 333.978 462.906 395.069C405.26 327.33 343.679 257.534 331.638 219.554Z" fill="url(#paint4_linear_18_3)"/>
<path d="M479.441 590.583C668.569 557.207 748.313 393.616 676.748 289.513C643.37 240.96 591.097 249.974 479.441 256.661C367.784 263.347 256.811 282.1 256.81 428.038C256.808 573.976 392.54 605.918 479.441 590.583Z" fill="url(#paint5_radial_18_3)"/>
<path d="M479.441 590.583C668.569 557.207 748.313 393.616 676.748 289.513C643.37 240.96 591.097 249.974 479.441 256.661C367.784 263.347 256.811 282.1 256.81 428.038C256.808 573.976 392.54 605.918 479.441 590.583Z" fill="url(#paint6_linear_18_3)"/>
<g style="mix-blend-mode:hard-light">
<path d="M311.577 419.204C311.574 321.589 341.742 230.536 356.922 187.428C363.168 169.691 386.542 164.641 402.125 175.166C428.659 191.166 482.117 230.036 536.078 267.3C592.152 306.023 673.012 348.833 635.901 475.781C607.784 571.966 470.588 567.614 470.588 567.614C470.588 567.614 311.582 564.968 311.577 419.204Z" fill="url(#paint7_linear_18_3)"/>
</g>
<path d="M618.421 563.16C696.158 495.142 723.148 352.958 671.027 264.622C618.905 176.286 544.649 155.715 482.865 158.612C421.08 161.508 295.585 200.14 290.285 338.824C284.984 477.508 357.111 536.332 432.553 602.61C461.703 628.219 540.684 631.179 618.421 563.16Z" fill="url(#paint8_linear_18_3)"/>
<path d="M348.34 521.046C352.785 523.675 356.756 526.231 359.722 528.888C398.418 563.54 457.738 559.863 520.556 543.435C586.814 526.107 694.286 494.882 711.735 412.189C721.62 365.343 685.748 302.414 637.634 251.356C593.806 204.846 540.335 168.185 491.897 162.502C479.76 161.078 464.95 160.943 449.058 163.012C357.046 181.995 307.376 233.439 299.789 338.133C292.203 442.826 300.766 463.036 348.34 521.046Z" fill="url(#paint9_linear_18_3)" fill-opacity="0.78"/>
<g style="mix-blend-mode:color-dodge">
<path d="M235.304 410.672C220.89 310.531 263.359 202.572 360.484 202.572C437.161 202.572 480.491 261.192 539.398 299.697C611.74 346.984 667.194 379.595 667.194 427.493C667.194 514.394 537.631 560.547 414.051 511.077C323.882 474.982 249.719 510.813 235.304 410.672Z" fill="url(#paint10_radial_18_3)" fill-opacity="0.8"/>
</g>
<path d="M235.304 410.672C220.89 310.531 263.359 202.572 360.484 202.572C437.161 202.572 480.491 261.192 539.398 299.697C611.74 346.984 667.194 379.595 667.194 427.493C667.194 514.394 537.631 560.547 414.051 511.077C323.882 474.982 249.719 510.813 235.304 410.672Z" fill="url(#paint11_linear_18_3)"/>
<path d="M470.335 557.894C502.137 645.352 582.531 617.952 570.155 549.057C564.268 516.284 515.207 456.521 462.907 395.065C458.967 454.794 454.613 514.658 470.335 557.894Z" fill="url(#paint12_radial_18_3)"/>
<path d="M470.335 557.894C502.137 645.352 582.531 617.952 570.155 549.057C564.268 516.284 515.207 456.521 462.907 395.065C458.967 454.794 454.613 514.658 470.335 557.894Z" fill="url(#paint13_linear_18_3)"/>
<g filter="url(#filter2_df_18_3)">
<path d="M513.836 377.933C513.836 419.456 480.176 453.117 438.653 453.117C397.13 453.117 363.469 419.456 363.469 377.933C363.469 361.968 368.445 347.164 376.932 334.99C385.516 322.675 391.341 321.076 381.53 309.714C368.786 294.955 357.582 276.65 420.041 266.784C478.303 257.577 507.608 254.127 491.897 307.89C488.31 320.166 492.274 323.71 499.74 334.095C508.612 346.435 513.836 361.574 513.836 377.933Z" fill="white"/>
</g>
<defs>
<filter id="filter0_f_18_3" x="0" y="0.865234" width="877.975" height="877.976" filterUnits="userSpaceOnUse" color-interpolation-filters="sRGB">
<feFlood flood-opacity="0" result="BackgroundImageFix"/>
<feBlend mode="normal" in="SourceGraphic" in2="BackgroundImageFix" result="shape"/>
<feGaussianBlur stdDeviation="45" result="effect1_foregroundBlur_18_3"/>
</filter>
<filter id="filter1_d_18_3" x="85.0707" y="52" width="707.173" height="707.173" filterUnits="userSpaceOnUse" color-interpolation-filters="sRGB">
<feFlood flood-opacity="0" result="BackgroundImageFix"/>
<feColorMatrix in="SourceAlpha" type="matrix" values="0 0 0 0 0 0 0 0 0 0 0 0 0 0 0 0 0 0 127 0" result="hardAlpha"/>
<feOffset dy="22"/>
<feGaussianBlur stdDeviation="27.5"/>
<feColorMatrix type="matrix" values="0 0 0 0 0.121569 0 0 0 0 0.145098 0 0 0 0 0.258824 0 0 0 0.63 0"/>
<feBlend mode="multiply" in2="BackgroundImageFix" result="effect1_dropShadow_18_3"/>
<feBlend mode="normal" in="SourceGraphic" in2="effect1_dropShadow_18_3" result="shape"/>
</filter>
<filter id="filter2_df_18_3" x="298.469" y="196.398" width="300.368" height="341.719" filterUnits="userSpaceOnUse" color-interpolation-filters="sRGB">
<feFlood flood-opacity="0" result="BackgroundImageFix"/>
<feColorMatrix in="SourceAlpha" type="matrix" values="0 0 0 0 0 0 0 0 0 0 0 0 0 0 0 0 0 0 127 0" result="hardAlpha"/>
<feOffset dx="10" dy="10"/>
<feGaussianBlur stdDeviation="37.5"/>
<feColorMatrix type="matrix" values="0 0 0 0 1 0 0 0 0 1 0 0 0 0 1 0 0 0 1 0"/>
<feBlend mode="normal" in2="BackgroundImageFix" result="effect1_dropShadow_18_3"/>
<feBlend mode="normal" in="SourceGraphic" in2="effect1_dropShadow_18_3" result="shape"/>
<feGaussianBlur stdDeviation="18" result="effect2_foregroundBlur_18_3"/>
</filter>
<radialGradient id="paint0_radial_18_3" cx="0" cy="0" r="1" gradientUnits="userSpaceOnUse" gradientTransform="translate(341.485 183.058) rotate(63.1327) scale(224.794 266.666)">
<stop stop-color="#7D7194"/>
<stop offset="1" stop-color="#7D7194" stop-opacity="0"/>
</radialGradient>
<radialGradient id="paint1_radial_18_3" cx="0" cy="0" r="1" gradientUnits="userSpaceOnUse" gradientTransform="translate(721.345 287.298) rotate(161.19) scale(298.636)">
<stop stop-color="#4A8F9F"/>
<stop offset="1" stop-color="#4A8F9F" stop-opacity="0"/>
</radialGradient>
<radialGradient id="paint2_radial_18_3" cx="0" cy="0" r="1" gradientUnits="userSpaceOnUse" gradientTransform="translate(537.598 666.275) rotate(-108.939) scale(190.527)">
<stop stop-color="#5C4763"/>
<stop offset="1" stop-color="#5C4763" stop-opacity="0"/>
</radialGradient>
<radialGradient id="paint3_radial_18_3" cx="0" cy="0" r="1" gradientUnits="userSpaceOnUse" gradientTransform="translate(113.569 491.362) rotate(-18.3418) scale(342.488 476.067)">
<stop stop-color="#3D3041"/>
<stop offset="1" stop-color="#3D3041" stop-opacity="0"/>
</radialGradient>
<linearGradient id="paint4_linear_18_3" x1="328.415" y1="216.023" x2="456.454" y2="194.821" gradientUnits="userSpaceOnUse">
<stop stop-color="#E375A0"/>
<stop offset="1" stop-color="#E375A0" stop-opacity="0"/>
</linearGradient>
<radialGradient id="paint5_radial_18_3" cx="0" cy="0" r="1" gradientUnits="userSpaceOnUse" gradientTransform="translate(364.581 302.596) rotate(69.3339) scale(215.266 259.286)">
<stop stop-color="#B850C1"/>
<stop offset="1" stop-color="#DCADE0" stop-opacity="0"/>
</radialGradient>
<linearGradient id="paint6_linear_18_3" x1="494" y1="251" x2="492" y2="318" gradientUnits="userSpaceOnUse">
<stop stop-color="#B850C1"/>
<stop offset="1" stop-color="#DCADE0" stop-opacity="0"/>
</linearGradient>
<linearGradient id="paint7_linear_18_3" x1="345.146" y1="465.14" x2="511.225" y2="401.536" gradientUnits="userSpaceOnUse">
<stop stop-color="#7EA1E4"/>
<stop offset="1" stop-color="#70CBFF" stop-opacity="0"/>
</linearGradient>
<linearGradient id="paint8_linear_18_3" x1="697.053" y1="366.2" x2="494.003" y2="457.708" gradientUnits="userSpaceOnUse">
<stop stop-color="#5BAEEC"/>
<stop offset="1" stop-color="#5BAEEC" stop-opacity="0"/>
</linearGradient>
<linearGradient id="paint9_linear_18_3" x1="361.998" y1="344.67" x2="631.318" y2="394.74" gradientUnits="userSpaceOnUse">
<stop stop-color="#85FAFE" stop-opacity="0"/>
<stop offset="1" stop-color="#85FAFE"/>
</linearGradient>
<radialGradient id="paint10_radial_18_3" cx="0" cy="0" r="1" gradientUnits="userSpaceOnUse" gradientTransform="translate(348 254) rotate(84.3771) scale(197.07 220.104)">
<stop stop-color="#65ECE8"/>
<stop offset="1" stop-color="#8BECE9" stop-opacity="0"/>
</radialGradient>
<linearGradient id="paint11_linear_18_3" x1="586" y1="478" x2="644" y2="367" gradientUnits="userSpaceOnUse">
<stop stop-color="#7BE7F6" stop-opacity="0"/>
<stop offset="0.75" stop-color="#7BE7F6"/>
</linearGradient>
<radialGradient id="paint12_radial_18_3" cx="0" cy="0" r="1" gradientUnits="userSpaceOnUse" gradientTransform="translate(482.956 592.349) rotate(-68.2079) scale(123.761 158.895)">
<stop stop-color="#E375A0" stop-opacity="0"/>
<stop offset="1" stop-color="#FF91C6"/>
</radialGradient>
<linearGradient id="paint13_linear_18_3" x1="470.588" y1="420.971" x2="479.422" y2="481.042" gradientUnits="userSpaceOnUse">
<stop stop-color="white"/>
<stop offset="1" stop-color="white" stop-opacity="0"/>
</linearGradient>
</defs>
</svg>
