<svg width="34" height="34" viewBox="0 0 34 34" fill="none" xmlns="http://www.w3.org/2000/svg">
<g id="vuesax/outline/logout">
<g id="logout">
<path id="Vector" d="M21.59 31.5493H21.4058C15.1158 31.5493 12.0842 29.0701 11.56 23.5168C11.5033 22.9359 11.9283 22.4118 12.5233 22.3551C13.09 22.2984 13.6283 22.7376 13.685 23.3184C14.0958 27.7668 16.1925 29.4243 21.42 29.4243H21.6042C27.37 29.4243 29.41 27.3843 29.41 21.6184V12.3818C29.41 6.61593 27.37 4.57593 21.6042 4.57593H21.42C16.1642 4.57593 14.0675 6.26176 13.685 10.7951C13.6142 11.3759 13.1183 11.8151 12.5233 11.7584C11.9283 11.7159 11.5033 11.1918 11.5458 10.6109C12.0275 4.97259 15.0733 2.45093 21.4058 2.45093H21.59C28.5458 2.45093 31.5208 5.42593 31.5208 12.3818V21.6184C31.5208 28.5743 28.5458 31.5493 21.59 31.5493Z" fill="#D50606"/>
<path id="Vector_2" d="M21.25 18.0625H5.12833C4.5475 18.0625 4.06583 17.5808 4.06583 17C4.06583 16.4192 4.5475 15.9375 5.12833 15.9375H21.25C21.8308 15.9375 22.3125 16.4192 22.3125 17C22.3125 17.5808 21.8308 18.0625 21.25 18.0625Z" fill="#D50606"/>
<path id="Vector_3" d="M8.2875 22.8084C8.01834 22.8084 7.74917 22.7093 7.53667 22.4968L2.79084 17.7509C2.38 17.3401 2.38 16.6601 2.79084 16.2493L7.53667 11.5034C7.9475 11.0926 8.6275 11.0926 9.03834 11.5034C9.44917 11.9143 9.44917 12.5943 9.03834 13.0051L5.04334 17.0001L9.03834 20.9951C9.44917 21.4059 9.44917 22.0859 9.03834 22.4968C8.84 22.7093 8.55667 22.8084 8.2875 22.8084Z" fill="#D50606"/>
</g>
</g>
</svg>
